<svg xmlns="http://www.w3.org/2000/svg" xmlns:xlink="http://www.w3.org/1999/xlink" xmlns:lucid="lucid" width="1910" height="1362.83"><g transform="translate(20 20)" lucid:page-tab-id="0_0"><path d="M260 526a6 6 0 0 1 6-6h188a6 6 0 0 1 6 6v148a6 6 0 0 1-6 6H266a6 6 0 0 1-6-6z" stroke="#5e5e5e" stroke-width="3" fill="#dfe3e8"/><use xlink:href="#a" transform="matrix(1,0,0,1,265,525) translate(43.11523437500005 90.16927083333329)"/><path d="M210 600c0 55.23-44.77 100-100 100S10 655.23 10 600s44.77-100 100-100 100 44.77 100 100z" stroke="#5e5e5e" stroke-width="3" fill="#f2f3f5"/><use xlink:href="#b" transform="matrix(1,0,0,1,15,505) translate(3.893346354167102 97.30427083333313)"/><use xlink:href="#c" transform="matrix(1,0,0,1,15,505) translate(27.70519531250032 151.99177083333288)"/><path d="M214.5 600h17.34" stroke="#5e5e5e" stroke-width="6" fill="none"/><path d="M214.58 603h-3.15l.07-3-.02-2.16-.04-.84h3.14z" stroke="#5e5e5e" stroke-width=".05" fill="#5e5e5e"/><path d="M248.8 599.8l-14.22 4.8-.1-9.27z" stroke="#5e5e5e" stroke-width="6" fill="#5e5e5e"/><path d="M747 460c0 55.23-44.77 100-100 100s-100-44.77-100-100 44.77-100 100-100 100 44.77 100 100z" stroke="#5e5e5e" stroke-width="3" fill="#f2f3f5"/><use xlink:href="#d" transform="matrix(1,0,0,1,552.0000999999993,365) translate(19.22809027777837 86.17621527777757)"/><use xlink:href="#e" transform="matrix(1,0,0,1,552.0000999999993,365) translate(139.18468749999965 86.17621527777757)"/><use xlink:href="#f" transform="matrix(1,0,0,1,552.0000999999993,365) translate(9.116210937500668 120.03038194444397)"/><path d="M747 740c0 55.23-44.77 100-100 100s-100-44.77-100-100 44.77-100 100-100 100 44.77 100 100z" stroke="#5e5e5e" stroke-width="3" fill="#f2f3f5"/><use xlink:href="#g" transform="matrix(1,0,0,1,552.0000999999993,645) translate(38.597547743056 87.94704861111117)"/><use xlink:href="#h" transform="matrix(1,0,0,1,552.0000999999993,645) translate(-0.24305555555480396 121.80121527777757)"/><path d="M464.5 600h33a6 6 0 0 1 6 6v128a6 6 0 0 0 6 6h9.03" stroke="#5e5e5e" stroke-width="6" fill="none"/><path d="M464.58 603h-3.08v-6h3.08z" stroke="#5e5e5e" stroke-width=".05" fill="#5e5e5e"/><path d="M535.8 740l-14.27 4.63v-9.26z" stroke="#5e5e5e" stroke-width="6" fill="#5e5e5e"/><path d="M464.5 600h33a6 6 0 0 0 6-6V466a6 6 0 0 1 6-6h9.03" stroke="#5e5e5e" stroke-width="6" fill="none"/><path d="M464.58 603h-3.08v-6h3.08z" stroke="#5e5e5e" stroke-width=".05" fill="#5e5e5e"/><path d="M535.8 460l-14.27 4.63v-9.26z" stroke="#5e5e5e" stroke-width="6" fill="#5e5e5e"/><path d="M883 546a6 6 0 0 1 6-6h265a6 6 0 0 1 6 6v148a6 6 0 0 1-6 6H889a6 6 0 0 1-6-6z" stroke="#5e5e5e" stroke-width="3" fill="#dfe3e8"/><use xlink:href="#i" transform="matrix(1,0,0,1,888,545) translate(27.054687500000142 60.91579861111104)"/><use xlink:href="#j" transform="matrix(1,0,0,1,888,545) translate(79.36859809027786 126.01996527777763)"/><path d="M883 786a6 6 0 0 1 6-6h265a6 6 0 0 1 6 6v148a6 6 0 0 1-6 6H889a6 6 0 0 1-6-6z" stroke="#5e5e5e" stroke-width="3" fill="#dfe3e8"/><use xlink:href="#k" transform="matrix(1,0,0,1,888,785) translate(-4.317382812499801 61.43663194444446)"/><use xlink:href="#l" transform="matrix(1,0,0,1,888,785) translate(36.06076388888903 126.54079861111104)"/><path d="M751.5 740H809a6 6 0 0 0 6-6V626a6 6 0 0 1 6-6h33.53" stroke="#5e5e5e" stroke-width="6" fill="none"/><path d="M751.58 743h-3.15l.07-3-.02-2.16-.04-.84h3.14z" stroke="#5e5e5e" stroke-width=".05" fill="#5e5e5e"/><path d="M871.8 620l-14.27 4.63v-9.26z" stroke="#5e5e5e" stroke-width="6" fill="#5e5e5e"/><path d="M751.5 740H809a6 6 0 0 1 6 6v108a6 6 0 0 0 6 6h33.53" stroke="#5e5e5e" stroke-width="6" fill="none"/><path d="M751.58 743h-3.15l.07-3-.02-2.16-.04-.84h3.14z" stroke="#5e5e5e" stroke-width=".05" fill="#5e5e5e"/><path d="M871.8 860l-14.27 4.63v-9.26z" stroke="#5e5e5e" stroke-width="6" fill="#5e5e5e"/><path d="M1540 620c0 55.23-44.77 100-100 100s-100-44.77-100-100 44.77-100 100-100 100 44.77 100 100z" stroke="#5e5e5e" stroke-width="3" fill="#f2f3f5"/><use xlink:href="#m" transform="matrix(1,0,0,1,1344.9998691530495,525) translate(20.765633680556128 86.17621527777757)"/><use xlink:href="#n" transform="matrix(1,0,0,1,1344.9998691530495,525) translate(7.924262152778468 120.03038194444397)"/><use xlink:href="#o" transform="matrix(1,0,0,1,1344.9998691530495,525) translate(125.77907986111086 120.03038194444397)"/><path d="M1540 860c0 55.23-44.77 100-100 100s-100-44.77-100-100 44.77-100 100-100 100 44.77 100 100z" stroke="#5e5e5e" stroke-width="3" fill="#f2f3f5"/><use xlink:href="#m" transform="matrix(1,0,0,1,1344.9998691530495,765) translate(20.765633680556128 68.36371527777757)"/><use xlink:href="#p" transform="matrix(1,0,0,1,1344.9998691530495,765) translate(23.33496093750057 102.21788194444397)"/><use xlink:href="#q" transform="matrix(1,0,0,1,1344.9998691530495,765) translate(48.60363281250036 136.07204861111038)"/><path d="M1164.5 620h147.03" stroke="#5e5e5e" stroke-width="6" fill="none"/><path d="M1164.58 623h-3.08v-6h3.08z" stroke="#5e5e5e" stroke-width=".05" fill="#5e5e5e"/><path d="M1328.8 620l-14.27 4.63v-9.26z" stroke="#5e5e5e" stroke-width="6" fill="#5e5e5e"/><path d="M1164.5 860h147.03" stroke="#5e5e5e" stroke-width="6" fill="none"/><path d="M1164.58 863h-3.08v-6h3.08z" stroke="#5e5e5e" stroke-width=".05" fill="#5e5e5e"/><path d="M1328.8 860l-14.27 4.63v-9.26z" stroke="#5e5e5e" stroke-width="6" fill="#5e5e5e"/><path d="M1660 646a6 6 0 0 1 6-6h188a6 6 0 0 1 6 6v148a6 6 0 0 1-6 6h-188a6 6 0 0 1-6-6z" stroke="#5e5e5e" stroke-width="3" fill="#dfe3e8"/><use xlink:href="#r" transform="matrix(1,0,0,1,1665,645) translate(53.69574652777785 47.61284722222217)"/><use xlink:href="#s" transform="matrix(1,0,0,1,1665,645) translate(12.414279513889028 84.07118055555543)"/><use xlink:href="#t" transform="matrix(1,0,0,1,1665,645) translate(31.699218750000114 120.5295138888887)"/><path d="M1545.5 860h48.5a6 6 0 0 0 6-6V726a6 6 0 0 1 6-6h21.3" stroke="#5e5e5e" stroke-width="8" fill="none"/><path d="M1545.6 864h-4.2l.1-4-.02-2.16-.1-1.84h4.22z" stroke="#5e5e5e" stroke-width=".05" fill="#5e5e5e"/><path d="M1645.56 720l-14.27 4.63v-9.26z" stroke="#5e5e5e" stroke-width="8" fill="#5e5e5e"/><path d="M1545.5 620h48.5a6 6 0 0 1 6 6v88a6 6 0 0 0 6 6h21.3" stroke="#5e5e5e" stroke-width="8" fill="none"/><path d="M1545.6 624h-4.2l.1-4-.02-2.16-.1-1.84h4.22z" stroke="#5e5e5e" stroke-width=".05" fill="#5e5e5e"/><path d="M1645.56 720l-14.27 4.63v-9.26z" stroke="#5e5e5e" stroke-width="8" fill="#5e5e5e"/><path d="M751.5 460H1754a6 6 0 0 1 6 6v145.53" stroke="#5e5e5e" stroke-width="6" fill="none"/><path d="M751.58 463h-3.15l.07-3-.02-2.16-.04-.84h3.14z" stroke="#5e5e5e" stroke-width=".05" fill="#5e5e5e"/><path d="M1760 628.8l-4.63-14.27h9.27z" stroke="#5e5e5e" stroke-width="6" fill="#5e5e5e"/><path d="M1340 1106a6 6 0 0 1 6-6h188a6 6 0 0 1 6 6v148a6 6 0 0 1-6 6h-188a6 6 0 0 1-6-6z" stroke="#5e5e5e" stroke-width="3" fill="#dfe3e8"/><use xlink:href="#u" transform="matrix(1,0,0,1,1344.9998691530495,1105) translate(16.234809027777928 85.11284722222217)"/><path d="M1443 724.5c0 1.66-1.34 3-3 3s-3-1.34-3-3 1.34-3 3-3 3 1.34 3 3zm0 13c0 1.66-1.34 3-3 3s-3-1.34-3-3 1.34-3 3-3 3 1.34 3 3zm6 6c0 1.66-1.34 3-3 3s-3-1.34-3-3 1.34-3 3-3 3 1.34 3 3zm11.8 0c0 1.66-1.34 3-3 3s-3-1.34-3-3 1.34-3 3-3 3 1.34 3 3zm11.8 0c0 1.66-1.34 3-3 3s-3-1.34-3-3 1.34-3 3-3 3 1.34 3 3zm11.8 0c0 1.66-1.34 3-3 3s-3-1.34-3-3 1.34-3 3-3 3 1.34 3 3zm11.8 0c0 1.66-1.34 3-3 3s-3-1.34-3-3 1.34-3 3-3 3 1.34 3 3zm11.8 0c0 1.66-1.34 3-3 3s-3-1.34-3-3 1.34-3 3-3 3 1.34 3 3zm11.8 0c0 1.66-1.34 3-3 3s-3-1.34-3-3 1.34-3 3-3 3 1.34 3 3zm11.8 0c0 1.66-1.34 3-3 3s-3-1.34-3-3 1.34-3 3-3 3 1.34 3 3zm11.8 0c0 1.66-1.34 3-3 3s-3-1.34-3-3 1.34-3 3-3 3 1.34 3 3zm11.8 0c0 1.66-1.34 3-3 3s-3-1.34-3-3 1.34-3 3-3 3 1.34 3 3zm11.8 0c0 1.66-1.34 3-3 3s-3-1.34-3-3 1.34-3 3-3 3 1.34 3 3zm6 6c0 1.66-1.34 3-3 3s-3-1.34-3-3 1.34-3 3-3 3 1.34 3 3zm0 11.73c0 1.65-1.34 3-3 3s-3-1.35-3-3c0-1.66 1.34-3 3-3s3 1.34 3 3zm0 11.72c0 1.66-1.34 3-3 3s-3-1.34-3-3 1.34-3 3-3 3 1.34 3 3zm0 11.72c0 1.66-1.34 3-3 3s-3-1.34-3-3c0-1.65 1.34-3 3-3s3 1.35 3 3zm0 11.73c0 1.66-1.34 3-3 3s-3-1.34-3-3 1.34-3 3-3 3 1.34 3 3zm0 11.73c0 1.65-1.34 3-3 3s-3-1.35-3-3c0-1.66 1.34-3 3-3s3 1.34 3 3zm0 11.72c0 1.66-1.34 3-3 3s-3-1.34-3-3 1.34-3 3-3 3 1.34 3 3zm0 11.73c0 1.65-1.34 3-3 3s-3-1.35-3-3c0-1.66 1.34-3 3-3s3 1.34 3 3zm0 11.72c0 1.66-1.34 3-3 3s-3-1.34-3-3 1.34-3 3-3 3 1.34 3 3zm0 11.73c0 1.65-1.34 3-3 3s-3-1.35-3-3c0-1.66 1.34-3 3-3s3 1.34 3 3zm0 11.72c0 1.66-1.34 3-3 3s-3-1.34-3-3 1.34-3 3-3 3 1.34 3 3zm0 11.73c0 1.65-1.34 3-3 3s-3-1.35-3-3c0-1.66 1.34-3 3-3s3 1.34 3 3zm0 11.72c0 1.66-1.34 3-3 3s-3-1.34-3-3 1.34-3 3-3 3 1.34 3 3zm0 11.72c0 1.66-1.34 3-3 3s-3-1.34-3-3c0-1.65 1.34-3 3-3s3 1.35 3 3zm0 11.73c0 1.66-1.34 3-3 3s-3-1.34-3-3 1.34-3 3-3 3 1.34 3 3zm0 11.73c0 1.65-1.34 3-3 3s-3-1.35-3-3c0-1.66 1.34-3 3-3s3 1.34 3 3zm0 11.72c0 1.66-1.34 3-3 3s-3-1.34-3-3 1.34-3 3-3 3 1.34 3 3zm0 11.73c0 1.65-1.34 3-3 3s-3-1.35-3-3c0-1.66 1.34-3 3-3s3 1.34 3 3zm0 11.72c0 1.66-1.34 3-3 3s-3-1.34-3-3 1.34-3 3-3 3 1.34 3 3zm0 11.73c0 1.65-1.34 3-3 3s-3-1.35-3-3c0-1.66 1.34-3 3-3s3 1.34 3 3zm0 11.72c0 1.66-1.34 3-3 3s-3-1.34-3-3 1.34-3 3-3 3 1.34 3 3zm-6 6c0 1.66-1.34 3-3 3s-3-1.34-3-3 1.34-3 3-3 3 1.34 3 3zm-11.8 0c0 1.66-1.34 3-3 3s-3-1.34-3-3 1.34-3 3-3 3 1.34 3 3zm-11.8 0c0 1.66-1.34 3-3 3s-3-1.34-3-3 1.34-3 3-3 3 1.34 3 3zm-11.8 0c0 1.66-1.34 3-3 3s-3-1.34-3-3 1.34-3 3-3 3 1.34 3 3zm-11.8 0c0 1.66-1.34 3-3 3s-3-1.34-3-3 1.34-3 3-3 3 1.34 3 3zm-11.8 0c0 1.66-1.34 3-3 3s-3-1.34-3-3 1.34-3 3-3 3 1.34 3 3zm-11.8 0c0 1.66-1.34 3-3 3s-3-1.34-3-3 1.34-3 3-3 3 1.34 3 3zm-11.8 0c0 1.66-1.34 3-3 3s-3-1.34-3-3 1.34-3 3-3 3 1.34 3 3zm-11.8 0c0 1.66-1.34 3-3 3s-3-1.34-3-3 1.34-3 3-3 3 1.34 3 3zm-11.8 0c0 1.66-1.34 3-3 3s-3-1.34-3-3 1.34-3 3-3 3 1.34 3 3zm-11.8 0c0 1.66-1.34 3-3 3s-3-1.34-3-3 1.34-3 3-3 3 1.34 3 3zm-6 6c0 1.66-1.34 3-3 3s-3-1.34-3-3 1.34-3 3-3 3 1.34 3 3zm0 12.6c0 1.64-1.34 3-3 3s-3-1.36-3-3c0-1.67 1.34-3 3-3s3 1.33 3 3zm0 12.57c0 1.66-1.34 3-3 3s-3-1.34-3-3c0-1.65 1.34-3 3-3s3 1.35 3 3zm0 12.6c0 1.65-1.34 3-3 3s-3-1.35-3-3c0-1.66 1.34-3 3-3s3 1.34 3 3zm0 12.58c0 1.66-1.34 3-3 3s-3-1.34-3-3 1.34-3 3-3 3 1.34 3 3zm0 12.6c0 1.64-1.34 3-3 3s-3-1.36-3-3c0-1.67 1.34-3 3-3s3 1.33 3 3zm0 12.58c0 1.65-1.34 3-3 3s-3-1.35-3-3c0-1.66 1.34-3 3-3s3 1.34 3 3z" fill="#5e5e5e"/><path d="M1440 721.5l2.16-.02.84-.04v3.14h-6v-3.15z" stroke="#5e5e5e" stroke-width=".05" fill="#5e5e5e"/><path d="M1440 1088.8l-4.63-14.27h9.27z" stroke="#5e5e5e" stroke-width="6" fill="#5e5e5e"/><path d="M1443 964.5c0 1.66-1.34 3-3 3s-3-1.34-3-3 1.34-3 3-3 3 1.34 3 3zm0 11.9c0 1.65-1.34 3-3 3s-3-1.35-3-3c0-1.66 1.34-3 3-3s3 1.34 3 3zm0 11.88c0 1.66-1.34 3-3 3s-3-1.34-3-3c0-1.65 1.34-3 3-3s3 1.35 3 3zm0 11.9c0 1.65-1.34 3-3 3s-3-1.35-3-3c0-1.66 1.34-3 3-3s3 1.34 3 3zm0 11.9c0 1.64-1.34 3-3 3s-3-1.36-3-3c0-1.67 1.34-3 3-3s3 1.33 3 3zm0 11.88c0 1.66-1.34 3-3 3s-3-1.34-3-3 1.34-3 3-3 3 1.34 3 3zm0 11.9c0 1.65-1.34 3-3 3s-3-1.35-3-3c0-1.67 1.34-3 3-3s3 1.33 3 3zm0 11.88c0 1.66-1.34 3-3 3s-3-1.34-3-3c0-1.65 1.34-3 3-3s3 1.35 3 3zm0 11.9c0 1.65-1.34 3-3 3s-3-1.35-3-3c0-1.66 1.34-3 3-3s3 1.34 3 3z" fill="#5e5e5e"/><path d="M1440 961.5l2.16-.02.84-.04v3.14h-6v-3.15z" stroke="#5e5e5e" stroke-width=".05" fill="#5e5e5e"/><path d="M1440 1088.8l-4.63-14.27h9.27z" stroke="#5e5e5e" stroke-width="6" fill="#5e5e5e"/><path d="M1860 1160c0 55.23-44.77 100-100 100s-100-44.77-100-100 44.77-100 100-100 100 44.77 100 100z" stroke="#5e5e5e" stroke-width="3" fill="#f2f3f5"/><use xlink:href="#v" transform="matrix(1,0,0,1,1665,1065) translate(15.63910590277817 110.66840277777754)"/><use xlink:href="#w" transform="matrix(1,0,0,1,1665,1065) translate(102.47417534722217 110.66840277777754)"/><path d="M1760 804.5v227.03" stroke="#5e5e5e" stroke-width="6" fill="none"/><path d="M1763 804.58h-6v-3.08h6z" stroke="#5e5e5e" stroke-width=".05" fill="#5e5e5e"/><path d="M1760 1048.8l-4.63-14.27h9.27z" stroke="#5e5e5e" stroke-width="6" fill="#5e5e5e"/><g fill="none"><path d="M764 2a2 2 0 0 1 2 2v1304.5a2 2 0 0 1-2 2 2 2 0 0 1-2-2V4a2 2 0 0 1 2-2z"/><path d="M766 31.67V55.4m0 15.8v23.72m0 15.8v23.73m0 15.8V174m0 15.8v23.73m0 15.82v23.72m0 15.8v23.73m0 15.8v23.73m0 15.8v23.73m0 15.8v23.73m0 15.8v23.73m0 15.8v23.72m0 15.8v23.73m0 15.8v23.73m0 15.8v23.73m0 15.83v23.7m0 15.83v23.7m0 15.83v23.7m0 15.82v23.7m0 15.83v23.7m0 15.83v23.7m0 15.83v23.73m0 15.8v23.73m0 15.8v23.73m0 15.8v23.72m0 15.8v23.73m0 15.8v23.73m0 15.8v23.73m0 15.82v23.72m0 15.8v23.73m0 15.8v23.73m0 15.8v23.73m0 15.8v11.87l-.02.3-.08.32-.12.3-.16.26-.2.23-.24.22-.27.16-.28.12-.3.07-.32.03-.3-.03-.32-.07-.3-.12-.26-.16-.23-.2-.22-.24-.16-.27-.12-.28-.07-.3-.03-.32v-11.86m0-15.8v-23.73m0-15.8v-23.72m0-15.8v-23.73m0-15.8v-23.73m0-15.8v-23.73m0-15.82v-23.72m0-15.8v-23.73m0-15.8V980.4m0-15.8v-23.73m0-15.8v-23.73m0-15.8V861.8m0-15.8v-23.72m0-15.8v-23.73m0-15.82v-23.7m0-15.83v-23.7m0-15.83v-23.7m0-15.83v-23.7m0-15.83v-23.7m0-15.82v-23.7m0-15.83v-23.72m0-15.8V466.5m0-15.8v-23.73m0-15.8v-23.73m0-15.8V347.9m0-15.8v-23.72m0-15.8v-23.73m0-15.8V229.3m0-15.8v-23.73m0-15.82v-23.72m0-15.8v-23.73m0-15.8V71.2m0-15.8V31.66m0-15.8V4l.03-.3.07-.32.12-.3.16-.26.2-.23.24-.22.27-.16.28-.12.3-.07L764 2l.3.03.32.07.3.12.26.16.23.2.22.24.16.27.12.28.08.3.02.32v11.86" stroke="#333" stroke-width="4"/></g><g fill="none"><path d="M1261 2a2 2 0 0 1 2 2v1304.5a2 2 0 0 1-2 2 2 2 0 0 1-2-2V4a2 2 0 0 1 2-2z"/><path d="M1263 31.67V55.4m0 15.8v23.72m0 15.8v23.73m0 15.8V174m0 15.8v23.73m0 15.82v23.72m0 15.8v23.73m0 15.8v23.73m0 15.8v23.73m0 15.8v23.73m0 15.8v23.73m0 15.8v23.72m0 15.82v23.7m0 15.83v23.7m0 15.83v23.7m0 15.83v23.7m0 15.83v23.7m0 15.83v23.7m0 15.82v23.72m0 15.8v23.73m0 15.8V846m0 15.8v23.73m0 15.8v23.73m0 15.8v23.73m0 15.8v23.72m0 15.8v23.73m0 15.8v23.73m0 15.8v23.73m0 15.82v23.72m0 15.8v23.73m0 15.8v23.73m0 15.8v23.73m0 15.8v11.87l-.03.3-.07.32-.12.3-.16.26-.2.23-.24.22-.27.16-.28.12-.3.08-.32.02-.3-.02-.32-.08-.3-.12-.26-.16-.23-.2-.22-.24-.16-.27-.12-.28-.08-.3-.02-.32v-11.86m0-15.8v-23.73m0-15.8v-23.72m0-15.8v-23.73m0-15.8v-23.73m0-15.8v-23.73m0-15.82v-23.72m0-15.8v-23.73m0-15.8V980.4m0-15.8v-23.73m0-15.8v-23.73m0-15.8V861.8m0-15.8v-23.72m0-15.8v-23.73m0-15.8V743.2m0-15.82v-23.7m0-15.83v-23.7m0-15.83v-23.7m0-15.83v-23.7m0-15.82v-23.7m0-15.83v-23.7m0-15.83V466.5m0-15.8v-23.73m0-15.8v-23.73m0-15.8V347.9m0-15.8v-23.72m0-15.8v-23.73m0-15.8V229.3m0-15.8v-23.73m0-15.82v-23.72m0-15.8v-23.73m0-15.8V71.2m0-15.8V31.66m0-15.8V4l.02-.3.08-.32.12-.3.16-.26.2-.23.24-.22.27-.16.28-.12.3-.07.32-.03.3.03.32.07.3.12.26.16.23.2.22.24.16.27.12.28.07.3.03.32v11.86" stroke="#333" stroke-width="4"/></g><path d="M768 6a6 6 0 0 1 6-6h477a6 6 0 0 1 6 6v228a6 6 0 0 1-6 6H774a6 6 0 0 1-6-6z" stroke="#000" stroke-opacity="0" stroke-width="3" fill="#fff" fill-opacity="0"/><g><use xlink:href="#x" transform="matrix(1,0,0,1,773.0000000000002,5) translate(25.576388888889255 137.84722222222211)"/></g><path d="M0 6a6 6 0 0 1 6-6h748a6 6 0 0 1 6 6v228a6 6 0 0 1-6 6H6a6 6 0 0 1-6-6z" stroke="#000" stroke-opacity="0" stroke-width="3" fill="#fff" fill-opacity="0"/><g><use xlink:href="#y" transform="matrix(1,0,0,1,5,5) translate(253.6284722222224 137.84722222222211)"/></g><path d="M1265 6a6 6 0 0 1 6-6h593a6 6 0 0 1 6 6v228a6 6 0 0 1-6 6h-593a6 6 0 0 1-6-6z" stroke="#000" stroke-opacity="0" stroke-width="3" fill="#fff" fill-opacity="0"/><g><use xlink:href="#z" transform="matrix(1,0,0,1,1269.9999345765245,5) translate(170.32638888888948 137.84722222222192)"/></g><path d="M12 244a2 2 0 0 1 2-2h1852a2 2 0 0 1 2 2 2 2 0 0 1-2 2H14a2 2 0 0 1-2-2z" stroke="#333" stroke-width="4" fill="none"/><path d="M0 892a12 12 0 0 1 12-12h496a12 12 0 0 1 12 12v418.84a12 12 0 0 1-12 12H12a12 12 0 0 1-12-12z" stroke="#dfe3e8" stroke-width="8" fill="#fff"/><path d="M186.32 1106.25c0 22.05-17.87 39.93-39.92 39.93s-39.93-17.88-39.93-39.93 17.88-39.92 39.93-39.92 39.92 17.87 39.92 39.92z" stroke="#000" stroke-opacity=".25" fill="#f2f3f5"/><path d="M113.13 1190.27c0-1.38 1.1-2.5 2.5-2.5h61.55c1.37 0 2.5 1.12 2.5 2.5v44.9c0 1.4-1.13 2.5-2.5 2.5h-61.56c-1.38 0-2.5-1.1-2.5-2.5z" stroke="#5e5e5e" stroke-width="2" fill="#ced4db"/><g><use xlink:href="#A" transform="matrix(1,0,0,1,106.47163117289367,959.8537233796702) translate(0 54.288793103448285)"/></g><g><use xlink:href="#B" transform="matrix(1,0,0,1,226.25221624239904,1066.325354552564) translate(0 54.28879310344826)"/></g><g><use xlink:href="#C" transform="matrix(1,0,0,1,226.25221624239904,1172.7969857254575) translate(0 54.28879310344826)"/></g><defs><path fill="#333" d="M972-643H361V0H169v-1456h902v158H361v498h611v157" id="D"/><path fill="#333" d="M341 0H156v-1082h185V0zm-91-1264c-68 0-108-42-109-105 0-62 41-107 109-107s110 44 110 107-42 105-110 105" id="E"/><path fill="#333" d="M341 0H156v-1536h185V0" id="F"/><path fill="#333" d="M456 20C285 20 205-92 206-268v-671H9v-143h197v-262h185v262h202v143H391v671c-9 125 92 149 207 118V0c-49 13-96 20-142 20" id="G"/><path fill="#333" d="M663-916c-163-27-288 18-338 148V0H140v-1082h180l3 125c61-97 147-145 258-145 36 0 63 5 82 14v172" id="H"/><path fill="#333" d="M599-131c141 0 220-65 285-146l113 88C906-50 770 20 589 20 281 21 93-214 93-545c0-223 93-397 233-485 74-48 154-72 240-72 300 2 449 218 445 537v77H278c0 197 129 357 321 357zm227-509c-3-180-88-310-260-310-170 0-264 140-282 310h542" id="I"/><g id="a"><use transform="matrix(0.02278645833333331,0,0,0.02278645833333331,0,0)" xlink:href="#D"/><use transform="matrix(0.02278645833333331,0,0,0.02278645833333331,25.794270833333307,0)" xlink:href="#E"/><use transform="matrix(0.02278645833333331,0,0,0.02278645833333331,37.119140624999964,0)" xlink:href="#F"/><use transform="matrix(0.02278645833333331,0,0,0.02278645833333331,48.44401041666662,0)" xlink:href="#G"/><use transform="matrix(0.02278645833333331,0,0,0.02278645833333331,63.68815104166661,0)" xlink:href="#H"/><use transform="matrix(0.02278645833333331,0,0,0.02278645833333331,79.04622395833326,0)" xlink:href="#I"/></g><path fill="#333" d="M1222-777c17 480-206 763-650 777H169v-1456h411c408 9 627 269 642 679zm-190 4c3-312-149-522-447-525H361v1141h202c308 0 473-209 469-531v-85" id="J"/><path fill="#333" d="M584 20C278 26 81-227 91-551c10-320 175-545 491-551 308-5 503 247 494 573-9 322-175 543-492 549zm-2-970c-208 0-305 185-305 421 0 216 106 398 307 398 211 0 307-186 307-420 0-214-109-399-309-399" id="K"/><path fill="#333" d="M589-945c-131 0-219 81-264 174V0H140v-1082h175l6 136c83-104 191-156 324-156 229 0 346 129 346 387V0H806v-716c-2-153-65-229-217-229" id="L"/><path fill="#333" d="M599-131c141 0 220-65 285-146l113 88C906-50 770 20 589 20 281 21 93-214 93-545c0-223 93-397 233-485 74-48 154-72 240-72 300 2 449 218 445 537v77H278c0 197 129 357 321 357zm227-509c-3-180-88-310-260-310-170 0-264 140-282 310h542zm-170-894h224l-268 294H463" id="M"/><path fill="#333" d="M538-131c121 0 232-49 232-156 0-50-20-88-56-117-73-60-334-92-420-143-92-55-162-110-162-238 0-190 192-317 400-317 223 0 414 129 413 338H759c0-108-110-186-227-186-119 0-215 53-215 159 0 45 18 78 53 101 76 52 331 90 416 139 98 57 169 115 169 251C955-92 760 20 538 20c-176 0-314-68-386-174-38-55-57-115-57-179h185c6 129 116 202 258 202" id="N"/><g id="b"><use transform="matrix(0.022786458333333228,0,0,0.022786458333333228,0,0)" xlink:href="#J"/><use transform="matrix(0.022786458333333228,0,0,0.022786458333333228,30.602213541666526,0)" xlink:href="#K"/><use transform="matrix(0.022786458333333228,0,0,0.022786458333333228,57.21679687499974,0)" xlink:href="#L"/><use transform="matrix(0.022786458333333228,0,0,0.022786458333333228,82.96549479166629,0)" xlink:href="#L"/><use transform="matrix(0.022786458333333228,0,0,0.022786458333333228,108.71419270833283,0)" xlink:href="#M"/><use transform="matrix(0.022786458333333228,0,0,0.022786458333333228,133.43749999999937,0)" xlink:href="#I"/><use transform="matrix(0.022786458333333228,0,0,0.022786458333333228,158.16080729166592,0)" xlink:href="#N"/></g><path fill="#333" d="M1160-420C1159-145 963 0 674 0H169v-1456h476c294-1 476 112 476 388 0 153-99 253-216 302 146 38 255 167 255 346zM678-157c171 2 289-95 289-261 0-175-95-263-286-263H361v524h317zm250-912c-2-172-104-229-283-229H361v463h290c157 3 278-84 277-234" id="O"/><path fill="#333" d="M491 20c-241-1-355-148-355-398v-704h185v699c0 164 67 246 200 246 141 0 235-53 282-158v-787h185V0H812l-4-107C736-22 630 20 491 20" id="P"/><g id="c"><use transform="matrix(0.022786458333333228,0,0,0.022786458333333228,0,0)" xlink:href="#O"/><use transform="matrix(0.022786458333333228,0,0,0.022786458333333228,29.052734374999865,0)" xlink:href="#H"/><use transform="matrix(0.022786458333333228,0,0,0.022786458333333228,44.843749999999794,0)" xlink:href="#P"/><use transform="matrix(0.022786458333333228,0,0,0.022786458333333228,70.569661458333,0)" xlink:href="#G"/><use transform="matrix(0.022786458333333228,0,0,0.022786458333333228,85.81380208333293,0)" xlink:href="#I"/><use transform="matrix(0.022786458333333228,0,0,0.022786458333333228,110.53710937499949,0)" xlink:href="#N"/></g><g id="d"><use transform="matrix(0.014105902777777667,0,0,0.014105902777777667,0,0)" xlink:href="#J"/><use transform="matrix(0.014105902777777667,0,0,0.014105902777777667,18.944227430555408,0)" xlink:href="#K"/><use transform="matrix(0.014105902777777667,0,0,0.014105902777777667,35.41992187499972,0)" xlink:href="#L"/><use transform="matrix(0.014105902777777667,0,0,0.014105902777777667,51.35959201388849,0)" xlink:href="#L"/><use transform="matrix(0.014105902777777667,0,0,0.014105902777777667,67.29926215277725,0)" xlink:href="#M"/><use transform="matrix(0.014105902777777667,0,0,0.014105902777777667,82.60416666666602,0)" xlink:href="#I"/><use transform="matrix(0.014105902777777667,0,0,0.014105902777777667,97.90907118055479,0)" xlink:href="#N"/></g><path fill="#333" d="M520 20C244 20 95-247 95-550c0-298 151-550 427-552 127 0 227 43 301 130v-564h185V0H838l-9-116C755-25 652 20 520 20zm48-965c-210 0-288 177-288 416 0 218 87 392 286 392 117 0 203-53 257-158v-497c-55-102-140-153-255-153" id="Q"/><g id="e"><use transform="matrix(0.014105902777777667,0,0,0.014105902777777667,0,0)" xlink:href="#Q"/><use transform="matrix(0.014105902777777667,0,0,0.014105902777777667,16.292317708333204,0)" xlink:href="#I"/></g><path fill="#333" d="M688-137c238 0 323-102 359-325h193c-32 297-228 482-552 482-361 0-569-299-569-680 0-197 8-360 73-497 88-186 257-317 513-319 316-2 509 195 535 488h-193c-31-212-118-330-342-330-272 0-397 224-393 523v141c-3 282 115 517 376 517" id="R"/><path fill="#333" d="M1240-945c-141 0-250 95-250 227V0H804v-709c0-157-77-236-231-236-121 0-204 52-249 155V0H139v-1082h175l5 120c79-93 186-140 321-140 151 0 254 58 309 174 69-98 181-174 345-174 237 0 362 126 362 377V0h-185v-714c-2-159-67-231-231-231" id="S"/><path fill="#333" d="M632-1102c291 0 422 251 422 573 0 297-141 548-419 549-131 0-235-42-310-125v521H140v-1498h169l9 120c75-93 180-140 314-140zm-53 971c207 0 290-180 290-419 0-218-92-395-292-395-112 0-196 50-252 149v517c55 99 140 148 254 148" id="T"/><path fill="#333" d="M561-1102c238-4 403 126 403 351v498c0 99 13 178 38 237V0H808c-11-21-19-59-26-114C696-25 593 20 474 20c-199 0-368-130-365-320 4-251 214-359 490-356h180v-85c-1-135-86-212-229-212-115 0-232 67-233 171H131c20-205 206-316 430-320zM294-326c0 117 90 185 207 185 122 0 239-75 278-162v-222H634c-227 0-340 66-340 199" id="U"/><g id="f"><use transform="matrix(0.014105902777777667,0,0,0.014105902777777667,0,0)" xlink:href="#R"/><use transform="matrix(0.014105902777777667,0,0,0.014105902777777667,18.80316840277763,0)" xlink:href="#K"/><use transform="matrix(0.014105902777777667,0,0,0.014105902777777667,35.278862847221944,0)" xlink:href="#S"/><use transform="matrix(0.014105902777777667,0,0,0.014105902777777667,60.59895833333286,0)" xlink:href="#T"/><use transform="matrix(0.014105902777777667,0,0,0.014105902777777667,76.8066406249994,0)" xlink:href="#U"/><use transform="matrix(0.014105902777777667,0,0,0.014105902777777667,92.52061631944372,0)" xlink:href="#H"/><use transform="matrix(0.014105902777777667,0,0,0.014105902777777667,101.73177083333255,0)" xlink:href="#U"/><use transform="matrix(0.014105902777777667,0,0,0.014105902777777667,117.44574652777686,0)" xlink:href="#E"/><use transform="matrix(0.014105902777777667,0,0,0.014105902777777667,124.45638020833236,0)" xlink:href="#N"/><use transform="matrix(0.014105902777777667,0,0,0.014105902777777667,139.35221354166558,0)" xlink:href="#K"/><use transform="matrix(0.014105902777777667,0,0,0.014105902777777667,155.8279079861099,0)" xlink:href="#L"/></g><g id="g"><use transform="matrix(0.014105902777777667,0,0,0.014105902777777667,0,0)" xlink:href="#J"/><use transform="matrix(0.014105902777777667,0,0,0.014105902777777667,18.944227430555408,0)" xlink:href="#K"/><use transform="matrix(0.014105902777777667,0,0,0.014105902777777667,35.41992187499972,0)" xlink:href="#L"/><use transform="matrix(0.014105902777777667,0,0,0.014105902777777667,51.35959201388849,0)" xlink:href="#L"/><use transform="matrix(0.014105902777777667,0,0,0.014105902777777667,67.29926215277725,0)" xlink:href="#M"/><use transform="matrix(0.014105902777777667,0,0,0.014105902777777667,82.60416666666602,0)" xlink:href="#I"/><use transform="matrix(0.014105902777777667,0,0,0.014105902777777667,97.90907118055479,0)" xlink:href="#N"/></g><path fill="#333" d="M253-1536c2 169-14 319-21 479H103l1-479h149" id="V"/><path fill="#333" d="M341 0H155v-1082h186V0zm215-1261v10H403l-150-170-149 170H-49v-12l246-272h112" id="W"/><g id="h"><use transform="matrix(0.014105902777777667,0,0,0.014105902777777667,0,0)" xlink:href="#Q"/><use transform="matrix(0.014105902777777667,0,0,0.014105902777777667,16.292317708333204,0)" xlink:href="#V"/><use transform="matrix(0.014105902777777667,0,0,0.014105902777777667,20.49587673611095,0)" xlink:href="#I"/><use transform="matrix(0.014105902777777667,0,0,0.014105902777777667,35.800781249999716,0)" xlink:href="#L"/><use transform="matrix(0.014105902777777667,0,0,0.014105902777777667,51.74045138888848,0)" xlink:href="#G"/><use transform="matrix(0.014105902777777667,0,0,0.014105902777777667,61.17730034722174,0)" xlink:href="#H"/><use transform="matrix(0.014105902777777667,0,0,0.014105902777777667,70.38845486111056,0)" xlink:href="#U"/><use transform="matrix(0.014105902777777667,0,0,0.014105902777777667,86.10243055555488,0)" xlink:href="#W"/><use transform="matrix(0.014105902777777667,0,0,0.014105902777777667,93.24001736111038,0)" xlink:href="#L"/><use transform="matrix(0.014105902777777667,0,0,0.014105902777777667,109.17968749999913,0)" xlink:href="#I"/><use transform="matrix(0.014105902777777667,0,0,0.014105902777777667,124.4845920138879,0)" xlink:href="#S"/><use transform="matrix(0.014105902777777667,0,0,0.014105902777777667,149.8046874999988,0)" xlink:href="#I"/><use transform="matrix(0.014105902777777667,0,0,0.014105902777777667,165.10959201388758,0)" xlink:href="#L"/><use transform="matrix(0.014105902777777667,0,0,0.014105902777777667,181.04926215277635,0)" xlink:href="#G"/></g><path fill="#333" d="M277-555c0 244 77 420 297 424 127 2 249-93 255-210h175C980-127 805 20 574 20 258 20 81-222 92-562c11-319 164-533 481-540 237-5 426 165 431 392H829c-7-133-115-242-256-240-209 4-296 166-296 395" id="X"/><g id="i"><use transform="matrix(0.027126736111111074,0,0,0.027126736111111074,0,0)" xlink:href="#J"/><use transform="matrix(0.027126736111111074,0,0,0.027126736111111074,36.43120659722217,0)" xlink:href="#I"/><use transform="matrix(0.027126736111111074,0,0,0.027126736111111074,65.86371527777769,0)" xlink:href="#X"/><use transform="matrix(0.027126736111111074,0,0,0.027126736111111074,94.94357638888876,0)" xlink:href="#E"/><use transform="matrix(0.027126736111111074,0,0,0.027126736111111074,108.42556423611096,0)" xlink:href="#N"/><use transform="matrix(0.027126736111111074,0,0,0.027126736111111074,137.07139756944426,0)" xlink:href="#E"/><use transform="matrix(0.027126736111111074,0,0,0.027126736111111074,150.55338541666646,0)" xlink:href="#K"/><use transform="matrix(0.027126736111111074,0,0,0.027126736111111074,182.2374131944442,0)" xlink:href="#L"/></g><path fill="#333" d="M1175-1298H707V0H516v-1298H49v-158h1126v158" id="Y"/><g id="j"><use transform="matrix(0.027126736111111074,0,0,0.027126736111111074,0,0)" xlink:href="#Y"/><use transform="matrix(0.027126736111111074,0,0,0.027126736111111074,31.1143663194444,0)" xlink:href="#H"/><use transform="matrix(0.027126736111111074,0,0,0.027126736111111074,49.397786458333265,0)" xlink:href="#I"/><use transform="matrix(0.027126736111111074,0,0,0.027126736111111074,78.83029513888877,0)" xlink:href="#I"/></g><path fill="#333" d="M1161-1018c0 201-122 330-278 388l342 618V0h-206L703-589H361V0H168v-1456h482c310-2 511 139 511 438zm-193 0c0-187-120-280-313-280H361v552h295c179 3 313-101 312-272" id="Z"/><path fill="#333" d="M521 20C240 20 96-239 96-550c0-303 147-552 427-552 132 0 235 47 309 140l9-120h169V-26c4 277-183 454-459 452-165-1-334-81-400-187l96-111c79 98 176 147 291 147 180 1 288-109 286-290v-93C750-23 649 20 521 20zm48-965c-209 0-287 178-287 416 0 217 86 392 285 392 117 0 202-53 257-159v-494c-57-103-142-155-255-155" id="aa"/><g id="k"><use transform="matrix(0.027126736111111074,0,0,0.027126736111111074,0,0)" xlink:href="#Z"/><use transform="matrix(0.027126736111111074,0,0,0.027126736111111074,34.206814236111065,0)" xlink:href="#M"/><use transform="matrix(0.027126736111111074,0,0,0.027126736111111074,63.63932291666658,0)" xlink:href="#aa"/><use transform="matrix(0.027126736111111074,0,0,0.027126736111111074,94.8079427083332,0)" xlink:href="#H"/><use transform="matrix(0.027126736111111074,0,0,0.027126736111111074,113.09136284722207,0)" xlink:href="#I"/><use transform="matrix(0.027126736111111074,0,0,0.027126736111111074,142.52387152777757,0)" xlink:href="#N"/><use transform="matrix(0.027126736111111074,0,0,0.027126736111111074,171.16970486111086,0)" xlink:href="#N"/><use transform="matrix(0.027126736111111074,0,0,0.027126736111111074,199.81553819444414,0)" xlink:href="#E"/><use transform="matrix(0.027126736111111074,0,0,0.027126736111111074,213.29752604166634,0)" xlink:href="#K"/><use transform="matrix(0.027126736111111074,0,0,0.027126736111111074,244.98155381944412,0)" xlink:href="#L"/></g><path fill="#333" d="M362-157h690V0H169v-1456h193v1299" id="ab"/><g id="l"><use transform="matrix(0.027126736111111074,0,0,0.027126736111111074,0,0)" xlink:href="#ab"/><use transform="matrix(0.027126736111111074,0,0,0.027126736111111074,29.893663194444404,0)" xlink:href="#E"/><use transform="matrix(0.027126736111111074,0,0,0.027126736111111074,43.37565104166661,0)" xlink:href="#L"/><use transform="matrix(0.027126736111111074,0,0,0.027126736111111074,74.02886284722211,0)" xlink:href="#M"/><use transform="matrix(0.027126736111111074,0,0,0.027126736111111074,103.46137152777763,0)" xlink:href="#U"/><use transform="matrix(0.027126736111111074,0,0,0.027126736111111074,133.68055555555537,0)" xlink:href="#E"/><use transform="matrix(0.027126736111111074,0,0,0.027126736111111074,147.16254340277757,0)" xlink:href="#H"/><use transform="matrix(0.027126736111111074,0,0,0.027126736111111074,165.44596354166643,0)" xlink:href="#I"/></g><path fill="#333" d="M1216-1011c-1 297-202 441-512 441H361V0H169v-1456h537c297-6 510 164 510 445zm-192 2c1-178-126-288-307-289H361v571h345c196 1 318-92 318-282" id="ac"/><path fill="#333" d="M599-131c141 0 220-65 285-146l113 88C906-50 770 20 589 20 281 21 93-214 93-545c0-223 93-397 233-485 74-48 154-72 240-72 300 2 449 218 445 537v77H278c0 197 129 357 321 357zm227-509c-3-180-88-310-260-310-170 0-264 140-282 310h542zm-155-600H512l-258-294h223" id="ad"/><g id="m"><use transform="matrix(0.014105902777777667,0,0,0.014105902777777667,0,0)" xlink:href="#ac"/><use transform="matrix(0.014105902777777667,0,0,0.014105902777777667,18.069661458333194,0)" xlink:href="#U"/><use transform="matrix(0.014105902777777667,0,0,0.014105902777777667,33.783637152777516,0)" xlink:href="#H"/><use transform="matrix(0.014105902777777667,0,0,0.014105902777777667,42.99479166666633,0)" xlink:href="#U"/><use transform="matrix(0.014105902777777667,0,0,0.014105902777777667,58.70876736111065,0)" xlink:href="#S"/><use transform="matrix(0.014105902777777667,0,0,0.014105902777777667,84.02886284722156,0)" xlink:href="#ad"/><use transform="matrix(0.014105902777777667,0,0,0.014105902777777667,99.33376736111033,0)" xlink:href="#G"/><use transform="matrix(0.014105902777777667,0,0,0.014105902777777667,108.77061631944359,0)" xlink:href="#H"/><use transform="matrix(0.014105902777777667,0,0,0.014105902777777667,118.27799479166573,0)" xlink:href="#I"/><use transform="matrix(0.014105902777777667,0,0,0.014105902777777667,133.58289930555452,0)" xlink:href="#N"/></g><g id="n"><use transform="matrix(0.014105902777777667,0,0,0.014105902777777667,0,0)" xlink:href="#J"/><use transform="matrix(0.014105902777777667,0,0,0.014105902777777667,18.944227430555408,0)" xlink:href="#I"/><use transform="matrix(0.014105902777777667,0,0,0.014105902777777667,34.24913194444417,0)" xlink:href="#X"/><use transform="matrix(0.014105902777777667,0,0,0.014105902777777667,49.37065972222183,0)" xlink:href="#E"/><use transform="matrix(0.014105902777777667,0,0,0.014105902777777667,56.38129340277733,0)" xlink:href="#N"/><use transform="matrix(0.014105902777777667,0,0,0.014105902777777667,71.27712673611055,0)" xlink:href="#E"/><use transform="matrix(0.014105902777777667,0,0,0.014105902777777667,78.28776041666605,0)" xlink:href="#K"/><use transform="matrix(0.014105902777777667,0,0,0.014105902777777667,94.76345486111036,0)" xlink:href="#L"/></g><g id="o"><use transform="matrix(0.014105902777777667,0,0,0.014105902777777667,0,0)" xlink:href="#Y"/><use transform="matrix(0.014105902777777667,0,0,0.014105902777777667,16.179470486110983,0)" xlink:href="#H"/><use transform="matrix(0.014105902777777667,0,0,0.014105902777777667,25.68684895833313,0)" xlink:href="#I"/><use transform="matrix(0.014105902777777667,0,0,0.014105902777777667,40.9917534722219,0)" xlink:href="#I"/></g><g id="p"><use transform="matrix(0.014105902777777667,0,0,0.014105902777777667,0,0)" xlink:href="#Z"/><use transform="matrix(0.014105902777777667,0,0,0.014105902777777667,17.787543402777636,0)" xlink:href="#M"/><use transform="matrix(0.014105902777777667,0,0,0.014105902777777667,33.0924479166664,0)" xlink:href="#aa"/><use transform="matrix(0.014105902777777667,0,0,0.014105902777777667,49.300130208332945,0)" xlink:href="#H"/><use transform="matrix(0.014105902777777667,0,0,0.014105902777777667,58.807508680555095,0)" xlink:href="#I"/><use transform="matrix(0.014105902777777667,0,0,0.014105902777777667,74.11241319444386,0)" xlink:href="#N"/><use transform="matrix(0.014105902777777667,0,0,0.014105902777777667,89.00824652777708,0)" xlink:href="#N"/><use transform="matrix(0.014105902777777667,0,0,0.014105902777777667,103.90407986111029,0)" xlink:href="#E"/><use transform="matrix(0.014105902777777667,0,0,0.014105902777777667,110.91471354166579,0)" xlink:href="#K"/><use transform="matrix(0.014105902777777667,0,0,0.014105902777777667,127.3904079861101,0)" xlink:href="#L"/></g><g id="q"><use transform="matrix(0.014105902777777667,0,0,0.014105902777777667,0,0)" xlink:href="#F"/><use transform="matrix(0.014105902777777667,0,0,0.014105902777777667,7.0106336805555,0)" xlink:href="#E"/><use transform="matrix(0.014105902777777667,0,0,0.014105902777777667,14.021267361111,0)" xlink:href="#L"/><use transform="matrix(0.014105902777777667,0,0,0.014105902777777667,29.960937499999766,0)" xlink:href="#M"/><use transform="matrix(0.014105902777777667,0,0,0.014105902777777667,45.26584201388853,0)" xlink:href="#U"/><use transform="matrix(0.014105902777777667,0,0,0.014105902777777667,60.97981770833285,0)" xlink:href="#E"/><use transform="matrix(0.014105902777777667,0,0,0.014105902777777667,67.99045138888835,0)" xlink:href="#H"/><use transform="matrix(0.014105902777777667,0,0,0.014105902777777667,77.4978298611105,0)" xlink:href="#I"/></g><path fill="#333" d="M992-673H361v516h733V0H169v-1456h915v158H361v468h631v157" id="ae"/><g id="r"><use transform="matrix(0.015190972222222194,0,0,0.015190972222222194,0,0)" xlink:href="#ae"/><use transform="matrix(0.015190972222222194,0,0,0.015190972222222194,17.682291666666636,0)" xlink:href="#H"/><use transform="matrix(0.015190972222222194,0,0,0.015190972222222194,28.209635416666615,0)" xlink:href="#H"/><use transform="matrix(0.015190972222222194,0,0,0.015190972222222194,38.44835069444437,0)" xlink:href="#I"/><use transform="matrix(0.015190972222222194,0,0,0.015190972222222194,54.93055555555546,0)" xlink:href="#P"/><use transform="matrix(0.015190972222222194,0,0,0.015190972222222194,72.08116319444431,0)" xlink:href="#H"/></g><path fill="#333" d="M524 20C238 18 95-240 95-550c0-307 146-552 431-552 128 0 229 43 303 129l8-109h170V416H822v-516C747-20 648 20 524 20zm48-970c-208 0-292 182-292 421 0 219 92 398 290 398 110 0 194-49 252-146v-530c-59-95-142-143-250-143" id="af"/><g id="s"><use transform="matrix(0.015190972222222194,0,0,0.015190972222222194,0,0)" xlink:href="#af"/><use transform="matrix(0.015190972222222194,0,0,0.015190972222222194,17.682291666666636,0)" xlink:href="#P"/><use transform="matrix(0.015190972222222194,0,0,0.015190972222222194,34.83289930555549,0)" xlink:href="#U"/><use transform="matrix(0.015190972222222194,0,0,0.015190972222222194,51.755642361111015,0)" xlink:href="#Q"/><use transform="matrix(0.015190972222222194,0,0,0.015190972222222194,69.30121527777766,0)" xlink:href="#H"/><use transform="matrix(0.015190972222222194,0,0,0.015190972222222194,79.22092013888876,0)" xlink:href="#U"/><use transform="matrix(0.015190972222222194,0,0,0.015190972222222194,96.14366319444429,0)" xlink:href="#G"/><use transform="matrix(0.015190972222222194,0,0,0.015190972222222194,106.30642361111093,0)" xlink:href="#E"/><use transform="matrix(0.015190972222222194,0,0,0.015190972222222194,113.85633680555536,0)" xlink:href="#af"/><use transform="matrix(0.015190972222222194,0,0,0.015190972222222194,131.538628472222,0)" xlink:href="#P"/><use transform="matrix(0.015190972222222194,0,0,0.015190972222222194,148.68923611111086,0)" xlink:href="#I"/></g><path fill="#333" d="M494-271l252-811h198L509 167C425 381 299 474 84 421V271c167 16 242-37 283-173l41-110L22-1082h202" id="ag"/><g id="t"><use transform="matrix(0.015190972222222194,0,0,0.015190972222222194,0,0)" xlink:href="#S"/><use transform="matrix(0.015190972222222194,0,0,0.015190972222222194,27.26779513888884,0)" xlink:href="#K"/><use transform="matrix(0.015190972222222194,0,0,0.015190972222222194,44.78298611111103,0)" xlink:href="#ag"/><use transform="matrix(0.015190972222222194,0,0,0.015190972222222194,59.30555555555545,0)" xlink:href="#I"/><use transform="matrix(0.015190972222222194,0,0,0.015190972222222194,75.78776041666653,0)" xlink:href="#L"/><use transform="matrix(0.015190972222222194,0,0,0.015190972222222194,92.9535590277776,0)" xlink:href="#L"/><use transform="matrix(0.015190972222222194,0,0,0.015190972222222194,110.11935763888869,0)" xlink:href="#I"/></g><path fill="#333" d="M730-137c145 0 253-29 323-105v-327H716v-156h528v534C1148-51 964 20 729 20c-394 0-598-279-607-678v-127c-5-410 194-690 585-691 310-1 499 171 537 447h-192c-36-193-151-289-344-289-285 0-393 220-393 528v119c-5 296 140 534 415 534" id="ah"/><path fill="#333" d="M589-945c-131 0-219 81-264 174V0H140v-1536h185v585c82-101 189-151 320-151 229 0 346 129 346 387V0H806v-716c-2-153-65-229-217-229" id="ai"/><g id="u"><use transform="matrix(0.015190972222222194,0,0,0.015190972222222194,0,0)" xlink:href="#ah"/><use transform="matrix(0.015190972222222194,0,0,0.015190972222222194,21.19140624999996,0)" xlink:href="#H"/><use transform="matrix(0.015190972222222194,0,0,0.015190972222222194,31.11111111111105,0)" xlink:href="#U"/><use transform="matrix(0.015190972222222194,0,0,0.015190972222222194,48.03385416666657,0)" xlink:href="#T"/><use transform="matrix(0.015190972222222194,0,0,0.015190972222222194,65.48828124999987,0)" xlink:href="#ai"/><use transform="matrix(0.015190972222222194,0,0,0.015190972222222194,82.62369791666652,0)" xlink:href="#E"/><use transform="matrix(0.015190972222222194,0,0,0.015190972222222194,90.17361111111094,0)" xlink:href="#af"/><use transform="matrix(0.015190972222222194,0,0,0.015190972222222194,107.85590277777757,0)" xlink:href="#P"/><use transform="matrix(0.015190972222222194,0,0,0.015190972222222194,125.00651041666643,0)" xlink:href="#I"/><use transform="matrix(0.015190972222222194,0,0,0.015190972222222194,141.48871527777752,0)" xlink:href="#N"/></g><path fill="#333" d="M134 290L29 218c97-132 105-239 98-437h181c1 144 5 239-50 347-34 67-74 121-124 162" id="aj"/><g id="v"><use transform="matrix(0.02387152777777766,0,0,0.02387152777777766,0,0)" xlink:href="#H"/><use transform="matrix(0.01671006944444436,0,0,0.01671006944444436,16.54296874999992,7.937282986111072)" xlink:href="#H"/><use transform="matrix(0.01671006944444436,0,0,0.01671006944444436,27.805555555555415,7.937282986111072)" xlink:href="#I"/><use transform="matrix(0.01671006944444436,0,0,0.01671006944444436,45.93598090277755,7.937282986111072)" xlink:href="#aa"/><use transform="matrix(0.02387152777777766,0,0,0.02387152777777766,65.13585069444412,0)" xlink:href="#aj"/></g><g id="w"><use transform="matrix(0.02387152777777766,0,0,0.02387152777777766,0,0)" xlink:href="#H"/><use transform="matrix(0.01671006944444436,0,0,0.01671006944444436,16.54296874999992,7.937282986111072)" xlink:href="#Q"/><use transform="matrix(0.01671006944444436,0,0,0.01671006944444436,35.84309895833316,7.937282986111072)" xlink:href="#I"/><use transform="matrix(0.01671006944444436,0,0,0.01671006944444436,53.97352430555529,7.937282986111072)" xlink:href="#X"/></g><path fill="#333" d="M1006-631H430v390h676V0H130v-1456h974v243H430v347h576v235" id="ak"/><path fill="#333" d="M750-692c-1-124-48-174-173-175-81 0-142 35-183 104V0H105v-1082h272l9 125c77-97 181-145 311-145 244 0 342 151 342 403V0H750v-692" id="al"/><path fill="#333" d="M457-330c2 83 25 111 111 112 32 0 60-2 85-7V-6c-57 17-115 26-175 26-203 0-310-102-310-307v-583H10v-212h158v-266h289v266h185v212H457v540" id="am"/><path fill="#333" d="M719-811c-143-24-279 1-319 103V0H111v-1082h273l8 129c74-124 180-175 331-136" id="an"/><path fill="#333" d="M552-1102c254-4 435 134 435 383v469c1 103 15 180 43 233V0H738c-13-26-23-58-29-97C639-19 548 20 436 20 238 20 64-113 68-304c5-258 212-357 496-357h133c11-137-29-227-160-227-90 0-156 45-156 131H92c15-231 213-342 460-345zM357-325c0 76 61 124 142 124 88 0 168-45 198-105v-186H589c-152 2-232 51-232 167" id="ao"/><path fill="#333" d="M416 0H126v-1082h290V0zM271-1212c-92 0-162-61-162-150s68-149 162-149c93 0 162 60 162 149s-70 150-162 150" id="ap"/><path fill="#333" d="M1031-175C952-60 797 20 609 20 287 20 60-206 72-543c12-330 180-559 505-559 309 0 482 214 477 537v118H365c15 134 115 234 263 234 111 0 198-40 261-121zM770-644c5-139-62-226-194-224-130 1-191 97-208 224h402" id="aq"/><path fill="#333" d="M741-689c-2-124-40-177-163-178-82 0-141 34-178 102V0H111v-1082h271l9 121c77-94 180-141 311-141 139 0 235 55 287 165 76-110 184-165 325-165 249 0 348 151 348 411V0h-290v-690c-2-123-39-176-163-177-87 0-147 41-180 124l1 743H741v-689" id="ar"/><g id="x"><use transform="matrix(0.03472222222222217,0,0,0.03472222222222217,0,0)" xlink:href="#ak"/><use transform="matrix(0.03472222222222217,0,0,0.03472222222222217,39.999999999999936,0)" xlink:href="#al"/><use transform="matrix(0.03472222222222217,0,0,0.03472222222222217,79.82638888888876,0)" xlink:href="#am"/><use transform="matrix(0.03472222222222217,0,0,0.03472222222222217,103.85416666666652,0)" xlink:href="#an"/><use transform="matrix(0.03472222222222217,0,0,0.03472222222222217,128.7499999999998,0)" xlink:href="#ao"/><use transform="matrix(0.03472222222222217,0,0,0.03472222222222217,166.87499999999974,0)" xlink:href="#ap"/><use transform="matrix(0.03472222222222217,0,0,0.03472222222222217,185.72916666666637,0)" xlink:href="#al"/><use transform="matrix(0.03472222222222217,0,0,0.03472222222222217,225.5555555555552,0)" xlink:href="#aq"/><use transform="matrix(0.03472222222222217,0,0,0.03472222222222217,263.99305555555515,0)" xlink:href="#ar"/><use transform="matrix(0.03472222222222217,0,0,0.03472222222222217,325.55555555555503,0)" xlink:href="#aq"/><use transform="matrix(0.03472222222222217,0,0,0.03472222222222217,363.993055555555,0)" xlink:href="#al"/><use transform="matrix(0.03472222222222217,0,0,0.03472222222222217,403.8194444444438,0)" xlink:href="#am"/></g><path fill="#333" d="M1006-595H430V0H130v-1456h948v243H430v376h576v242" id="as"/><path fill="#333" d="M416 0H126v-1536h290V0" id="at"/><path fill="#333" d="M505 20C221 18 69-239 69-549c0-302 153-553 438-553 119 0 211 41 277 122l12-102h262V-36c-8 305-208 458-520 462-160 1-335-76-403-170L263 80c72 81 159 121 262 121 172 1 260-107 243-294C701-18 614 20 505 20zm76-887c-165 0-223 147-223 339 0 172 66 314 221 314 88 0 151-33 189-99v-455c-39-66-101-99-187-99" id="au"/><g id="y"><use transform="matrix(0.03472222222222217,0,0,0.03472222222222217,0,0)" xlink:href="#as"/><use transform="matrix(0.03472222222222217,0,0,0.03472222222222217,38.95833333333327,0)" xlink:href="#ap"/><use transform="matrix(0.03472222222222217,0,0,0.03472222222222217,57.81249999999991,0)" xlink:href="#at"/><use transform="matrix(0.03472222222222217,0,0,0.03472222222222217,76.66666666666654,0)" xlink:href="#am"/><use transform="matrix(0.03472222222222217,0,0,0.03472222222222217,100.69444444444429,0)" xlink:href="#an"/><use transform="matrix(0.03472222222222217,0,0,0.03472222222222217,125.59027777777757,0)" xlink:href="#ao"/><use transform="matrix(0.03472222222222217,0,0,0.03472222222222217,163.71527777777752,0)" xlink:href="#au"/><use transform="matrix(0.03472222222222217,0,0,0.03472222222222217,204.30555555555523,0)" xlink:href="#aq"/></g><path fill="#333" d="M952-300H426L326 0H7l542-1456h278L1372 0h-319zM507-543h364l-183-545" id="av"/><path fill="#333" d="M515-409l200-673h310L590 168c-66 202-236 321-472 250V199c127 7 198-15 230-107l34-89L3-1082h311" id="aw"/><path fill="#333" d="M529-185c94 0 168-33 168-114 0-35-18-63-53-83s-91-39-168-55C219-491 90-600 90-765c0-208 203-337 432-337 246 0 451 124 453 349H686c-2-91-62-143-165-143-86 0-151 41-153 117 0 32 16 57 46 77 63 43 257 69 335 100 151 60 229 153 229 291C978-13 554 93 282-28 162-81 60-190 56-344h274c5 106 86 159 199 159" id="ax"/><g id="z"><use transform="matrix(0.034722222222222064,0,0,0.034722222222222064,0,0)" xlink:href="#av"/><use transform="matrix(0.034722222222222064,0,0,0.034722222222222064,47.847222222222,0)" xlink:href="#al"/><use transform="matrix(0.034722222222222064,0,0,0.034722222222222064,87.67361111111072,0)" xlink:href="#ao"/><use transform="matrix(0.034722222222222064,0,0,0.034722222222222064,125.79861111111053,0)" xlink:href="#at"/><use transform="matrix(0.034722222222222064,0,0,0.034722222222222064,144.65277777777712,0)" xlink:href="#aw"/><use transform="matrix(0.034722222222222064,0,0,0.034722222222222064,180.3472222222214,0)" xlink:href="#ax"/><use transform="matrix(0.034722222222222064,0,0,0.034722222222222064,216.90972222222123,0)" xlink:href="#aq"/></g><path d="M430-241h637V0H130v-1456h300v1215" id="ay"/><path d="M1031-175C952-60 797 20 609 20 287 20 60-206 72-543c12-330 180-559 505-559 309 0 482 214 477 537v118H365c15 134 115 234 263 234 111 0 198-40 261-121zM770-644c5-139-62-226-194-224-130 1-191 97-208 224h402zm-168-892h315l-277 310H405" id="az"/><path d="M505 20C221 18 69-239 69-549c0-302 153-553 438-553 119 0 211 41 277 122l12-102h262V-36c-8 305-208 458-520 462-160 1-335-76-403-170L263 80c72 81 159 121 262 121 172 1 260-107 243-294C701-18 614 20 505 20zm76-887c-165 0-223 147-223 339 0 172 66 314 221 314 88 0 151-33 189-99v-455c-39-66-101-99-187-99" id="aA"/><path d="M1031-175C952-60 797 20 609 20 287 20 60-206 72-543c12-330 180-559 505-559 309 0 482 214 477 537v118H365c15 134 115 234 263 234 111 0 198-40 261-121zM770-644c5-139-62-226-194-224-130 1-191 97-208 224h402" id="aB"/><path d="M750-692c-1-124-48-174-173-175-81 0-142 35-183 104V0H105v-1082h272l9 125c77-97 181-145 311-145 244 0 342 151 342 403V0H750v-692" id="aC"/><path d="M488 20C204 20 66-234 66-549c0-305 140-551 424-553 105 0 192 39 261 118v-552h290V0H780l-14-115C694-25 601 20 488 20zM355-528c0 176 51 314 207 314 89 0 152-38 189-113v-427c-36-75-98-113-187-113-139 0-209 113-209 339" id="aD"/><g id="A"><use transform="matrix(0.019755747126436782,0,0,0.019755747126436782,0,0)" xlink:href="#ay"/><use transform="matrix(0.019755747126436782,0,0,0.019755747126436782,21.909123563218394,0)" xlink:href="#az"/><use transform="matrix(0.019755747126436782,0,0,0.019755747126436782,43.77873563218391,0)" xlink:href="#aA"/><use transform="matrix(0.019755747126436782,0,0,0.019755747126436782,66.87320402298852,0)" xlink:href="#aB"/><use transform="matrix(0.019755747126436782,0,0,0.019755747126436782,88.74281609195403,0)" xlink:href="#aC"/><use transform="matrix(0.019755747126436782,0,0,0.019755747126436782,111.402658045977,0)" xlink:href="#aD"/><use transform="matrix(0.019755747126436782,0,0,0.019755747126436782,134.20079022988506,0)" xlink:href="#aB"/></g><path d="M1222-777c17 480-206 763-650 777H169v-1456h411c408 9 627 269 642 679zm-190 4c3-312-149-522-447-525H361v1141h202c308 0 473-209 469-531v-85" id="aE"/><path d="M584 20C278 26 81-227 91-551c10-320 175-545 491-551 308-5 503 247 494 573-9 322-175 543-492 549zm-2-970c-208 0-305 185-305 421 0 216 106 398 307 398 211 0 307-186 307-420 0-214-109-399-309-399" id="aF"/><path d="M589-945c-131 0-219 81-264 174V0H140v-1082h175l6 136c83-104 191-156 324-156 229 0 346 129 346 387V0H806v-716c-2-153-65-229-217-229" id="aG"/><path d="M599-131c141 0 220-65 285-146l113 88C906-50 770 20 589 20 281 21 93-214 93-545c0-223 93-397 233-485 74-48 154-72 240-72 300 2 449 218 445 537v77H278c0 197 129 357 321 357zm227-509c-3-180-88-310-260-310-170 0-264 140-282 310h542zm-170-894h224l-268 294H463" id="aH"/><path d="M599-131c141 0 220-65 285-146l113 88C906-50 770 20 589 20 281 21 93-214 93-545c0-223 93-397 233-485 74-48 154-72 240-72 300 2 449 218 445 537v77H278c0 197 129 357 321 357zm227-509c-3-180-88-310-260-310-170 0-264 140-282 310h542" id="aI"/><g id="B"><use transform="matrix(0.01975574712643678,0,0,0.01975574712643678,0,0)" xlink:href="#aE"/><use transform="matrix(0.01975574712643678,0,0,0.01975574712643678,26.531968390804593,0)" xlink:href="#aF"/><use transform="matrix(0.01975574712643678,0,0,0.01975574712643678,49.60668103448275,0)" xlink:href="#aG"/><use transform="matrix(0.01975574712643678,0,0,0.01975574712643678,71.93067528735631,0)" xlink:href="#aG"/><use transform="matrix(0.01975574712643678,0,0,0.01975574712643678,94.25466954022987,0)" xlink:href="#aH"/><use transform="matrix(0.01975574712643678,0,0,0.01975574712643678,115.68965517241378,0)" xlink:href="#aI"/></g><path d="M688-137c238 0 323-102 359-325h193c-32 297-228 482-552 482-361 0-569-299-569-680 0-197 8-360 73-497 88-186 257-317 513-319 316-2 509 195 535 488h-193c-31-212-118-330-342-330-272 0-397 224-393 523v141c-3 282 115 517 376 517" id="aJ"/><path d="M520 20C244 20 95-247 95-550c0-298 151-550 427-552 127 0 227 43 301 130v-564h185V0H838l-9-116C755-25 652 20 520 20zm48-965c-210 0-288 177-288 416 0 218 87 392 286 392 117 0 203-53 257-158v-497c-55-102-140-153-255-153" id="aK"/><g id="C"><use transform="matrix(0.01975574712643678,0,0,0.01975574712643678,0,0)" xlink:href="#aJ"/><use transform="matrix(0.01975574712643678,0,0,0.01975574712643678,26.334410919540225,0)" xlink:href="#aF"/><use transform="matrix(0.01975574712643678,0,0,0.01975574712643678,49.40912356321838,0)" xlink:href="#aK"/><use transform="matrix(0.01975574712643678,0,0,0.01975574712643678,72.22701149425286,0)" xlink:href="#aI"/></g></defs></g></svg>